<mxfile host="app.diagrams.net" modified="2023-10-27T05:47:50.186Z" agent="Mozilla/5.0 (Windows NT 10.0; Win64; x64) AppleWebKit/537.36 (KHTML, like Gecko) Chrome/118.0.0.0 Safari/537.36 Edg/118.0.2088.61" etag="NMnZulyTVzZDxDIs1lIA" version="22.0.8" type="device">
  <diagram id="prtHgNgQTEPvFCAcTncT" name="Page-1">
    <mxGraphModel dx="691" dy="369" grid="1" gridSize="10" guides="1" tooltips="1" connect="1" arrows="1" fold="1" page="1" pageScale="1" pageWidth="827" pageHeight="1169" math="0" shadow="0">
      <root>
        <mxCell id="0" />
        <mxCell id="1" parent="0" />
        <mxCell id="g7UFJO2uD-LGSLW2rP1i-4" value="" style="rounded=1;whiteSpace=wrap;html=1;" parent="1" vertex="1">
          <mxGeometry x="389" y="220" width="300" height="165" as="geometry" />
        </mxCell>
        <mxCell id="g7UFJO2uD-LGSLW2rP1i-2" value="&lt;br&gt;&lt;br&gt;&lt;br&gt;&lt;br&gt;&lt;br&gt;&lt;br&gt;&lt;br&gt;&lt;br&gt;&lt;br&gt;&lt;br&gt;&lt;br&gt;&lt;br&gt;" style="shape=datastore;whiteSpace=wrap;html=1;" parent="1" vertex="1">
          <mxGeometry x="629" y="245" width="40" height="60" as="geometry" />
        </mxCell>
        <mxCell id="g7UFJO2uD-LGSLW2rP1i-3" value="Base de datos - H2" style="text;html=1;strokeColor=none;fillColor=none;align=center;verticalAlign=middle;whiteSpace=wrap;rounded=0;" parent="1" vertex="1">
          <mxGeometry x="614" y="305" width="70" height="40" as="geometry" />
        </mxCell>
        <mxCell id="g7UFJO2uD-LGSLW2rP1i-6" value="&lt;b&gt;AplicaciÃ³n de usuarios&lt;/b&gt;" style="text;html=1;strokeColor=none;fillColor=none;align=center;verticalAlign=middle;whiteSpace=wrap;rounded=0;" parent="1" vertex="1">
          <mxGeometry x="399" y="345" width="150" height="30" as="geometry" />
        </mxCell>
        <mxCell id="g7UFJO2uD-LGSLW2rP1i-7" value="" style="rounded=1;whiteSpace=wrap;html=1;" parent="1" vertex="1">
          <mxGeometry x="409" y="235" width="170" height="110" as="geometry" />
        </mxCell>
        <mxCell id="g7UFJO2uD-LGSLW2rP1i-8" value="&lt;b&gt;API RestFul&lt;/b&gt;" style="text;html=1;strokeColor=none;fillColor=none;align=center;verticalAlign=middle;whiteSpace=wrap;rounded=0;" parent="1" vertex="1">
          <mxGeometry x="409" y="235" width="90" height="30" as="geometry" />
        </mxCell>
        <mxCell id="g7UFJO2uD-LGSLW2rP1i-10" value="Recurso 1: &lt;br&gt;Registro Usuario&lt;br&gt;&lt;div style=&quot;&quot;&gt;&lt;span style=&quot;background-color: initial;&quot;&gt;POST /api/usuario&lt;/span&gt;&lt;/div&gt;" style="rounded=0;whiteSpace=wrap;html=1;align=left;" parent="1" vertex="1">
          <mxGeometry x="419" y="265" width="150" height="50" as="geometry" />
        </mxCell>
        <mxCell id="g7UFJO2uD-LGSLW2rP1i-11" value="Cliente" style="rounded=1;whiteSpace=wrap;html=1;" parent="1" vertex="1">
          <mxGeometry x="139" y="270" width="100" height="65" as="geometry" />
        </mxCell>
        <mxCell id="g7UFJO2uD-LGSLW2rP1i-26" value="" style="endArrow=none;html=1;rounded=0;entryX=0;entryY=0.7;entryDx=0;entryDy=0;exitX=1;exitY=0.5;exitDx=0;exitDy=0;" parent="1" source="g7UFJO2uD-LGSLW2rP1i-7" target="g7UFJO2uD-LGSLW2rP1i-2" edge="1">
          <mxGeometry width="50" height="50" relative="1" as="geometry">
            <mxPoint x="299" y="340" as="sourcePoint" />
            <mxPoint x="349" y="290" as="targetPoint" />
          </mxGeometry>
        </mxCell>
        <mxCell id="g7UFJO2uD-LGSLW2rP1i-29" value="" style="endArrow=classic;startArrow=classic;html=1;rounded=0;entryX=0;entryY=0.5;entryDx=0;entryDy=0;exitX=1;exitY=0.5;exitDx=0;exitDy=0;" parent="1" source="g7UFJO2uD-LGSLW2rP1i-11" target="g7UFJO2uD-LGSLW2rP1i-4" edge="1">
          <mxGeometry width="50" height="50" relative="1" as="geometry">
            <mxPoint x="259" y="257.5" as="sourcePoint" />
            <mxPoint x="309" y="207.5" as="targetPoint" />
          </mxGeometry>
        </mxCell>
        <mxCell id="-P7GOHA5QrDYasieA3Ad-1" value="HTTP (JSON)" style="text;html=1;strokeColor=none;fillColor=none;align=center;verticalAlign=middle;whiteSpace=wrap;rounded=0;" vertex="1" parent="1">
          <mxGeometry x="290" y="265" width="60" height="30" as="geometry" />
        </mxCell>
        <mxCell id="-P7GOHA5QrDYasieA3Ad-2" value="POST" style="text;html=1;strokeColor=none;fillColor=none;align=center;verticalAlign=middle;whiteSpace=wrap;rounded=0;" vertex="1" parent="1">
          <mxGeometry x="290" y="305" width="60" height="30" as="geometry" />
        </mxCell>
      </root>
    </mxGraphModel>
  </diagram>
</mxfile>
